<?xml version="1.0" encoding="utf-8" standalone="no"?>
<!DOCTYPE svg PUBLIC "-//W3C//DTD SVG 1.1//EN"
  "http://www.w3.org/Graphics/SVG/1.1/DTD/svg11.dtd">
<svg xmlns:xlink="http://www.w3.org/1999/xlink" width="568.8pt" height="568.8pt" viewBox="0 0 568.8 568.8" xmlns="http://www.w3.org/2000/svg" version="1.1">
 <metadata>
  <rdf:RDF xmlns:dc="http://purl.org/dc/elements/1.1/" xmlns:cc="http://creativecommons.org/ns#" xmlns:rdf="http://www.w3.org/1999/02/22-rdf-syntax-ns#">
   <cc:Work>
    <dc:type rdf:resource="http://purl.org/dc/dcmitype/StillImage"/>
    <dc:date>2025-12-12T11:14:57.836328</dc:date>
    <dc:format>image/svg+xml</dc:format>
    <dc:creator>
     <cc:Agent>
      <dc:title>Matplotlib v3.10.8, https://matplotlib.org/</dc:title>
     </cc:Agent>
    </dc:creator>
   </cc:Work>
  </rdf:RDF>
 </metadata>
 <defs>
  <style type="text/css">*{stroke-linejoin: round; stroke-linecap: butt}</style>
 </defs>
 <g id="figure_1">
  <g id="patch_1">
   <path d="M 0 568.8 
L 568.8 568.8 
L 568.8 0 
L 0 0 
z
" style="fill: #ffffff"/>
  </g>
  <g id="axes_1">
   <g id="line2d_1">
    <path d="M 99.6 376.8 
L 469.2 376.8 
" clip-path="url(#pf27f59c608)" style="fill: none; stroke: #08245b; stroke-width: 2.5; stroke-linecap: square"/>
   </g>
   <g id="line2d_2">
    <path d="M 99.6 192 
L 469.2 192 
" clip-path="url(#pf27f59c608)" style="fill: none; stroke: #08245b; stroke-width: 2.5; stroke-linecap: square"/>
   </g>
   <g id="line2d_3">
    <path d="M 145.8 446.1 
L 423 122.7 
" clip-path="url(#pf27f59c608)" style="fill: none; stroke: #3b82f6; stroke-width: 2.5; stroke-linecap: square"/>
   </g>
   <g id="line2d_4">
    <defs>
     <path id="maa3a53d627" d="M 0 3 
C 0.795609 3 1.55874 2.683901 2.12132 2.12132 
C 2.683901 1.55874 3 0.795609 3 0 
C 3 -0.795609 2.683901 -1.55874 2.12132 -2.12132 
C 1.55874 -2.683901 0.795609 -3 0 -3 
C -0.795609 -3 -1.55874 -2.683901 -2.12132 -2.12132 
C -2.683901 -1.55874 -3 -0.795609 -3 0 
C -3 0.795609 -2.683901 1.55874 -2.12132 2.12132 
C -1.55874 2.683901 -0.795609 3 0 3 
z
" style="stroke: #000000"/>
    </defs>
    <g clip-path="url(#pf27f59c608)">
     <use xlink:href="#maa3a53d627" x="251.598" y="376.8" style="stroke: #000000"/>
    </g>
   </g>
   <g id="line2d_5">
    <g clip-path="url(#pf27f59c608)">
     <use xlink:href="#maa3a53d627" x="317.202" y="192" style="stroke: #000000"/>
    </g>
   </g>
   <g id="text_1">
    <g id="patch_2">
     <path d="M 214.638 360.672969 
C 216.487253 360.672969 218.261014 359.938253 219.568633 358.630633 
C 220.876253 357.323014 221.610969 355.549253 221.610969 353.7 
C 221.610969 351.850747 220.876253 350.076986 219.568633 348.769367 
C 218.261014 347.461747 216.487253 346.727031 214.638 346.727031 
C 212.788747 346.727031 211.014986 347.461747 209.707367 348.769367 
C 208.399747 350.076986 207.665031 351.850747 207.665031 353.7 
C 207.665031 355.549253 208.399747 357.323014 209.707367 358.630633 
C 211.014986 359.938253 212.788747 360.672969 214.638 360.672969 
z
" style="fill: #ffffff; stroke: #3b82f6; stroke-linejoin: miter"/>
    </g>
    <!-- 1 -->
    <g style="fill: #08245b" transform="translate(210.811203 356.735312) scale(0.11 -0.11)">
     <defs>
      <path id="DejaVuSans-Bold-31" d="M 750 831 
L 1813 831 
L 1813 3847 
L 722 3622 
L 722 4441 
L 1806 4666 
L 2950 4666 
L 2950 831 
L 4013 831 
L 4013 0 
L 750 0 
L 750 831 
z
" transform="scale(0.015625)"/>
     </defs>
     <use xlink:href="#DejaVuSans-Bold-31"/>
    </g>
   </g>
   <g id="text_2">
    <g id="patch_3">
     <path d="M 288.558 360.672969 
C 290.407253 360.672969 292.181014 359.938253 293.488633 358.630633 
C 294.796253 357.323014 295.530969 355.549253 295.530969 353.7 
C 295.530969 351.850747 294.796253 350.076986 293.488633 348.769367 
C 292.181014 347.461747 290.407253 346.727031 288.558 346.727031 
C 286.708747 346.727031 284.934986 347.461747 283.627367 348.769367 
C 282.319747 350.076986 281.585031 351.850747 281.585031 353.7 
C 281.585031 355.549253 282.319747 357.323014 283.627367 358.630633 
C 284.934986 359.938253 286.708747 360.672969 288.558 360.672969 
z
" style="fill: #ffffff; stroke: #3b82f6; stroke-linejoin: miter"/>
    </g>
    <!-- 2 -->
    <g style="fill: #08245b" transform="translate(284.731203 356.735312) scale(0.11 -0.11)">
     <defs>
      <path id="DejaVuSans-Bold-32" d="M 1844 884 
L 3897 884 
L 3897 0 
L 506 0 
L 506 884 
L 2209 2388 
Q 2438 2594 2547 2791 
Q 2656 2988 2656 3200 
Q 2656 3528 2436 3728 
Q 2216 3928 1850 3928 
Q 1569 3928 1234 3808 
Q 900 3688 519 3450 
L 519 4475 
Q 925 4609 1322 4679 
Q 1719 4750 2100 4750 
Q 2938 4750 3402 4381 
Q 3866 4013 3866 3353 
Q 3866 2972 3669 2642 
Q 3472 2313 2841 1759 
L 1844 884 
z
" transform="scale(0.015625)"/>
     </defs>
     <use xlink:href="#DejaVuSans-Bold-32"/>
    </g>
   </g>
   <g id="text_3">
    <g id="patch_4">
     <path d="M 288.558 406.872969 
C 290.407253 406.872969 292.181014 406.138253 293.488633 404.830633 
C 294.796253 403.523014 295.530969 401.749253 295.530969 399.9 
C 295.530969 398.050747 294.796253 396.276986 293.488633 394.969367 
C 292.181014 393.661747 290.407253 392.927031 288.558 392.927031 
C 286.708747 392.927031 284.934986 393.661747 283.627367 394.969367 
C 282.319747 396.276986 281.585031 398.050747 281.585031 399.9 
C 281.585031 401.749253 282.319747 403.523014 283.627367 404.830633 
C 284.934986 406.138253 286.708747 406.872969 288.558 406.872969 
z
" style="fill: #ffffff; stroke: #3b82f6; stroke-linejoin: miter"/>
    </g>
    <!-- 3 -->
    <g style="fill: #08245b" transform="translate(284.731203 402.935312) scale(0.11 -0.11)">
     <defs>
      <path id="DejaVuSans-Bold-33" d="M 2981 2516 
Q 3453 2394 3698 2092 
Q 3944 1791 3944 1325 
Q 3944 631 3412 270 
Q 2881 -91 1863 -91 
Q 1503 -91 1142 -33 
Q 781 25 428 141 
L 428 1069 
Q 766 900 1098 814 
Q 1431 728 1753 728 
Q 2231 728 2486 893 
Q 2741 1059 2741 1369 
Q 2741 1688 2480 1852 
Q 2219 2016 1709 2016 
L 1228 2016 
L 1228 2791 
L 1734 2791 
Q 2188 2791 2409 2933 
Q 2631 3075 2631 3366 
Q 2631 3634 2415 3781 
Q 2200 3928 1806 3928 
Q 1516 3928 1219 3862 
Q 922 3797 628 3669 
L 628 4550 
Q 984 4650 1334 4700 
Q 1684 4750 2022 4750 
Q 2931 4750 3382 4451 
Q 3834 4153 3834 3553 
Q 3834 3144 3618 2883 
Q 3403 2622 2981 2516 
z
" transform="scale(0.015625)"/>
     </defs>
     <use xlink:href="#DejaVuSans-Bold-33"/>
    </g>
   </g>
   <g id="text_4">
    <g id="patch_5">
     <path d="M 214.638 406.872969 
C 216.487253 406.872969 218.261014 406.138253 219.568633 404.830633 
C 220.876253 403.523014 221.610969 401.749253 221.610969 399.9 
C 221.610969 398.050747 220.876253 396.276986 219.568633 394.969367 
C 218.261014 393.661747 216.487253 392.927031 214.638 392.927031 
C 212.788747 392.927031 211.014986 393.661747 209.707367 394.969367 
C 208.399747 396.276986 207.665031 398.050747 207.665031 399.9 
C 207.665031 401.749253 208.399747 403.523014 209.707367 404.830633 
C 211.014986 406.138253 212.788747 406.872969 214.638 406.872969 
z
" style="fill: #ffffff; stroke: #3b82f6; stroke-linejoin: miter"/>
    </g>
    <!-- 4 -->
    <g style="fill: #08245b" transform="translate(210.811203 402.935312) scale(0.11 -0.11)">
     <defs>
      <path id="DejaVuSans-Bold-34" d="M 2356 3675 
L 1038 1722 
L 2356 1722 
L 2356 3675 
z
M 2156 4666 
L 3494 4666 
L 3494 1722 
L 4159 1722 
L 4159 850 
L 3494 850 
L 3494 0 
L 2356 0 
L 2356 850 
L 288 850 
L 288 1881 
L 2156 4666 
z
" transform="scale(0.015625)"/>
     </defs>
     <use xlink:href="#DejaVuSans-Bold-34"/>
    </g>
   </g>
   <g id="text_5">
    <g id="patch_6">
     <path d="M 280.242 175.872969 
C 282.091253 175.872969 283.865014 175.138253 285.172633 173.830633 
C 286.480253 172.523014 287.214969 170.749253 287.214969 168.9 
C 287.214969 167.050747 286.480253 165.276986 285.172633 163.969367 
C 283.865014 162.661747 282.091253 161.927031 280.242 161.927031 
C 278.392747 161.927031 276.618986 162.661747 275.311367 163.969367 
C 274.003747 165.276986 273.269031 167.050747 273.269031 168.9 
C 273.269031 170.749253 274.003747 172.523014 275.311367 173.830633 
C 276.618986 175.138253 278.392747 175.872969 280.242 175.872969 
z
" style="fill: #ffffff; stroke: #3b82f6; stroke-linejoin: miter"/>
    </g>
    <!-- 5 -->
    <g style="fill: #08245b" transform="translate(276.415203 171.935312) scale(0.11 -0.11)">
     <defs>
      <path id="DejaVuSans-Bold-35" d="M 678 4666 
L 3669 4666 
L 3669 3781 
L 1638 3781 
L 1638 3059 
Q 1775 3097 1914 3117 
Q 2053 3138 2203 3138 
Q 3056 3138 3531 2711 
Q 4006 2284 4006 1522 
Q 4006 766 3489 337 
Q 2972 -91 2053 -91 
Q 1656 -91 1267 -14 
Q 878 63 494 219 
L 494 1166 
Q 875 947 1217 837 
Q 1559 728 1863 728 
Q 2300 728 2551 942 
Q 2803 1156 2803 1522 
Q 2803 1891 2551 2103 
Q 2300 2316 1863 2316 
Q 1603 2316 1309 2248 
Q 1016 2181 678 2041 
L 678 4666 
z
" transform="scale(0.015625)"/>
     </defs>
     <use xlink:href="#DejaVuSans-Bold-35"/>
    </g>
   </g>
   <g id="text_6">
    <g id="patch_7">
     <path d="M 354.162 175.872969 
C 356.011253 175.872969 357.785014 175.138253 359.092633 173.830633 
C 360.400253 172.523014 361.134969 170.749253 361.134969 168.9 
C 361.134969 167.050747 360.400253 165.276986 359.092633 163.969367 
C 357.785014 162.661747 356.011253 161.927031 354.162 161.927031 
C 352.312747 161.927031 350.538986 162.661747 349.231367 163.969367 
C 347.923747 165.276986 347.189031 167.050747 347.189031 168.9 
C 347.189031 170.749253 347.923747 172.523014 349.231367 173.830633 
C 350.538986 175.138253 352.312747 175.872969 354.162 175.872969 
z
" style="fill: #ffffff; stroke: #3b82f6; stroke-linejoin: miter"/>
    </g>
    <!-- 6 -->
    <g style="fill: #08245b" transform="translate(350.335203 171.935312) scale(0.11 -0.11)">
     <defs>
      <path id="DejaVuSans-Bold-36" d="M 2316 2303 
Q 2000 2303 1842 2098 
Q 1684 1894 1684 1484 
Q 1684 1075 1842 870 
Q 2000 666 2316 666 
Q 2634 666 2792 870 
Q 2950 1075 2950 1484 
Q 2950 1894 2792 2098 
Q 2634 2303 2316 2303 
z
M 3803 4544 
L 3803 3681 
Q 3506 3822 3243 3889 
Q 2981 3956 2731 3956 
Q 2194 3956 1894 3657 
Q 1594 3359 1544 2772 
Q 1750 2925 1990 3001 
Q 2231 3078 2516 3078 
Q 3231 3078 3670 2659 
Q 4109 2241 4109 1563 
Q 4109 813 3618 361 
Q 3128 -91 2303 -91 
Q 1394 -91 895 523 
Q 397 1138 397 2266 
Q 397 3422 980 4083 
Q 1563 4744 2578 4744 
Q 2900 4744 3203 4694 
Q 3506 4644 3803 4544 
z
" transform="scale(0.015625)"/>
     </defs>
     <use xlink:href="#DejaVuSans-Bold-36"/>
    </g>
   </g>
   <g id="text_7">
    <g id="patch_8">
     <path d="M 354.162 222.072969 
C 356.011253 222.072969 357.785014 221.338253 359.092633 220.030633 
C 360.400253 218.723014 361.134969 216.949253 361.134969 215.1 
C 361.134969 213.250747 360.400253 211.476986 359.092633 210.169367 
C 357.785014 208.861747 356.011253 208.127031 354.162 208.127031 
C 352.312747 208.127031 350.538986 208.861747 349.231367 210.169367 
C 347.923747 211.476986 347.189031 213.250747 347.189031 215.1 
C 347.189031 216.949253 347.923747 218.723014 349.231367 220.030633 
C 350.538986 221.338253 352.312747 222.072969 354.162 222.072969 
z
" style="fill: #ffffff; stroke: #3b82f6; stroke-linejoin: miter"/>
    </g>
    <!-- 7 -->
    <g style="fill: #08245b" transform="translate(350.335203 218.135312) scale(0.11 -0.11)">
     <defs>
      <path id="DejaVuSans-Bold-37" d="M 428 4666 
L 3944 4666 
L 3944 3988 
L 2125 0 
L 953 0 
L 2675 3781 
L 428 3781 
L 428 4666 
z
" transform="scale(0.015625)"/>
     </defs>
     <use xlink:href="#DejaVuSans-Bold-37"/>
    </g>
   </g>
   <g id="text_8">
    <g id="patch_9">
     <path d="M 280.242 222.072969 
C 282.091253 222.072969 283.865014 221.338253 285.172633 220.030633 
C 286.480253 218.723014 287.214969 216.949253 287.214969 215.1 
C 287.214969 213.250747 286.480253 211.476986 285.172633 210.169367 
C 283.865014 208.861747 282.091253 208.127031 280.242 208.127031 
C 278.392747 208.127031 276.618986 208.861747 275.311367 210.169367 
C 274.003747 211.476986 273.269031 213.250747 273.269031 215.1 
C 273.269031 216.949253 274.003747 218.723014 275.311367 220.030633 
C 276.618986 221.338253 278.392747 222.072969 280.242 222.072969 
z
" style="fill: #ffffff; stroke: #3b82f6; stroke-linejoin: miter"/>
    </g>
    <!-- 8 -->
    <g style="fill: #08245b" transform="translate(276.415203 218.135312) scale(0.11 -0.11)">
     <defs>
      <path id="DejaVuSans-Bold-38" d="M 2228 2088 
Q 1891 2088 1709 1903 
Q 1528 1719 1528 1375 
Q 1528 1031 1709 848 
Q 1891 666 2228 666 
Q 2563 666 2741 848 
Q 2919 1031 2919 1375 
Q 2919 1722 2741 1905 
Q 2563 2088 2228 2088 
z
M 1350 2484 
Q 925 2613 709 2878 
Q 494 3144 494 3541 
Q 494 4131 934 4440 
Q 1375 4750 2228 4750 
Q 3075 4750 3515 4442 
Q 3956 4134 3956 3541 
Q 3956 3144 3739 2878 
Q 3522 2613 3097 2484 
Q 3572 2353 3814 2058 
Q 4056 1763 4056 1313 
Q 4056 619 3595 264 
Q 3134 -91 2228 -91 
Q 1319 -91 855 264 
Q 391 619 391 1313 
Q 391 1763 633 2058 
Q 875 2353 1350 2484 
z
M 1631 3419 
Q 1631 3141 1786 2991 
Q 1941 2841 2228 2841 
Q 2509 2841 2662 2991 
Q 2816 3141 2816 3419 
Q 2816 3697 2662 3845 
Q 2509 3994 2228 3994 
Q 1941 3994 1786 3844 
Q 1631 3694 1631 3419 
z
" transform="scale(0.015625)"/>
     </defs>
     <use xlink:href="#DejaVuSans-Bold-38"/>
    </g>
   </g>
   <g id="text_9">
    <!-- → -->
    <g style="fill: #6b7280" transform="translate(76.5 376.8) scale(0.14 -0.14)">
     <defs>
      <path id="DejaVuSans-2192" d="M 5050 2147 
L 5050 1866 
L 3822 638 
L 3447 1013 
L 4175 1741 
L 366 1741 
L 366 2272 
L 4175 2272 
L 3447 3000 
L 3822 3375 
L 5050 2147 
z
" transform="scale(0.015625)"/>
     </defs>
     <use xlink:href="#DejaVuSans-2192"/>
    </g>
   </g>
   <g id="text_10">
    <!-- → -->
    <g style="fill: #6b7280" transform="translate(76.5 192) scale(0.14 -0.14)">
     <use xlink:href="#DejaVuSans-2192"/>
    </g>
   </g>
   <g id="text_11">
    <!-- Parallel Lines Cut by Transversal -->
    <g style="fill: #08245b" transform="translate(155.67875 76.5) scale(0.14 -0.14)">
     <defs>
      <path id="DejaVuSans-Bold-50" d="M 588 4666 
L 2584 4666 
Q 3475 4666 3951 4270 
Q 4428 3875 4428 3144 
Q 4428 2409 3951 2014 
Q 3475 1619 2584 1619 
L 1791 1619 
L 1791 0 
L 588 0 
L 588 4666 
z
M 1791 3794 
L 1791 2491 
L 2456 2491 
Q 2806 2491 2997 2661 
Q 3188 2831 3188 3144 
Q 3188 3456 2997 3625 
Q 2806 3794 2456 3794 
L 1791 3794 
z
" transform="scale(0.015625)"/>
      <path id="DejaVuSans-Bold-61" d="M 2106 1575 
Q 1756 1575 1579 1456 
Q 1403 1338 1403 1106 
Q 1403 894 1545 773 
Q 1688 653 1941 653 
Q 2256 653 2472 879 
Q 2688 1106 2688 1447 
L 2688 1575 
L 2106 1575 
z
M 3816 1997 
L 3816 0 
L 2688 0 
L 2688 519 
Q 2463 200 2181 54 
Q 1900 -91 1497 -91 
Q 953 -91 614 226 
Q 275 544 275 1050 
Q 275 1666 698 1953 
Q 1122 2241 2028 2241 
L 2688 2241 
L 2688 2328 
Q 2688 2594 2478 2717 
Q 2269 2841 1825 2841 
Q 1466 2841 1156 2769 
Q 847 2697 581 2553 
L 581 3406 
Q 941 3494 1303 3539 
Q 1666 3584 2028 3584 
Q 2975 3584 3395 3211 
Q 3816 2838 3816 1997 
z
" transform="scale(0.015625)"/>
      <path id="DejaVuSans-Bold-72" d="M 3138 2547 
Q 2991 2616 2845 2648 
Q 2700 2681 2553 2681 
Q 2122 2681 1889 2404 
Q 1656 2128 1656 1613 
L 1656 0 
L 538 0 
L 538 3500 
L 1656 3500 
L 1656 2925 
Q 1872 3269 2151 3426 
Q 2431 3584 2822 3584 
Q 2878 3584 2943 3579 
Q 3009 3575 3134 3559 
L 3138 2547 
z
" transform="scale(0.015625)"/>
      <path id="DejaVuSans-Bold-6c" d="M 538 4863 
L 1656 4863 
L 1656 0 
L 538 0 
L 538 4863 
z
" transform="scale(0.015625)"/>
      <path id="DejaVuSans-Bold-65" d="M 4031 1759 
L 4031 1441 
L 1416 1441 
Q 1456 1047 1700 850 
Q 1944 653 2381 653 
Q 2734 653 3104 758 
Q 3475 863 3866 1075 
L 3866 213 
Q 3469 63 3072 -14 
Q 2675 -91 2278 -91 
Q 1328 -91 801 392 
Q 275 875 275 1747 
Q 275 2603 792 3093 
Q 1309 3584 2216 3584 
Q 3041 3584 3536 3087 
Q 4031 2591 4031 1759 
z
M 2881 2131 
Q 2881 2450 2695 2645 
Q 2509 2841 2209 2841 
Q 1884 2841 1681 2658 
Q 1478 2475 1428 2131 
L 2881 2131 
z
" transform="scale(0.015625)"/>
      <path id="DejaVuSans-Bold-20" transform="scale(0.015625)"/>
      <path id="DejaVuSans-Bold-4c" d="M 588 4666 
L 1791 4666 
L 1791 909 
L 3903 909 
L 3903 0 
L 588 0 
L 588 4666 
z
" transform="scale(0.015625)"/>
      <path id="DejaVuSans-Bold-69" d="M 538 3500 
L 1656 3500 
L 1656 0 
L 538 0 
L 538 3500 
z
M 538 4863 
L 1656 4863 
L 1656 3950 
L 538 3950 
L 538 4863 
z
" transform="scale(0.015625)"/>
      <path id="DejaVuSans-Bold-6e" d="M 4056 2131 
L 4056 0 
L 2931 0 
L 2931 347 
L 2931 1631 
Q 2931 2084 2911 2256 
Q 2891 2428 2841 2509 
Q 2775 2619 2662 2680 
Q 2550 2741 2406 2741 
Q 2056 2741 1856 2470 
Q 1656 2200 1656 1722 
L 1656 0 
L 538 0 
L 538 3500 
L 1656 3500 
L 1656 2988 
Q 1909 3294 2193 3439 
Q 2478 3584 2822 3584 
Q 3428 3584 3742 3212 
Q 4056 2841 4056 2131 
z
" transform="scale(0.015625)"/>
      <path id="DejaVuSans-Bold-73" d="M 3272 3391 
L 3272 2541 
Q 2913 2691 2578 2766 
Q 2244 2841 1947 2841 
Q 1628 2841 1473 2761 
Q 1319 2681 1319 2516 
Q 1319 2381 1436 2309 
Q 1553 2238 1856 2203 
L 2053 2175 
Q 2913 2066 3209 1816 
Q 3506 1566 3506 1031 
Q 3506 472 3093 190 
Q 2681 -91 1863 -91 
Q 1516 -91 1145 -36 
Q 775 19 384 128 
L 384 978 
Q 719 816 1070 734 
Q 1422 653 1784 653 
Q 2113 653 2278 743 
Q 2444 834 2444 1013 
Q 2444 1163 2330 1236 
Q 2216 1309 1875 1350 
L 1678 1375 
Q 931 1469 631 1722 
Q 331 1975 331 2491 
Q 331 3047 712 3315 
Q 1094 3584 1881 3584 
Q 2191 3584 2531 3537 
Q 2872 3491 3272 3391 
z
" transform="scale(0.015625)"/>
      <path id="DejaVuSans-Bold-43" d="M 4288 256 
Q 3956 84 3597 -3 
Q 3238 -91 2847 -91 
Q 1681 -91 1000 561 
Q 319 1213 319 2328 
Q 319 3447 1000 4098 
Q 1681 4750 2847 4750 
Q 3238 4750 3597 4662 
Q 3956 4575 4288 4403 
L 4288 3438 
Q 3953 3666 3628 3772 
Q 3303 3878 2944 3878 
Q 2300 3878 1931 3465 
Q 1563 3053 1563 2328 
Q 1563 1606 1931 1193 
Q 2300 781 2944 781 
Q 3303 781 3628 887 
Q 3953 994 4288 1222 
L 4288 256 
z
" transform="scale(0.015625)"/>
      <path id="DejaVuSans-Bold-75" d="M 500 1363 
L 500 3500 
L 1625 3500 
L 1625 3150 
Q 1625 2866 1622 2436 
Q 1619 2006 1619 1863 
Q 1619 1441 1641 1255 
Q 1663 1069 1716 984 
Q 1784 875 1895 815 
Q 2006 756 2150 756 
Q 2500 756 2700 1025 
Q 2900 1294 2900 1772 
L 2900 3500 
L 4019 3500 
L 4019 0 
L 2900 0 
L 2900 506 
Q 2647 200 2364 54 
Q 2081 -91 1741 -91 
Q 1134 -91 817 281 
Q 500 653 500 1363 
z
" transform="scale(0.015625)"/>
      <path id="DejaVuSans-Bold-74" d="M 1759 4494 
L 1759 3500 
L 2913 3500 
L 2913 2700 
L 1759 2700 
L 1759 1216 
Q 1759 972 1856 886 
Q 1953 800 2241 800 
L 2816 800 
L 2816 0 
L 1856 0 
Q 1194 0 917 276 
Q 641 553 641 1216 
L 641 2700 
L 84 2700 
L 84 3500 
L 641 3500 
L 641 4494 
L 1759 4494 
z
" transform="scale(0.015625)"/>
      <path id="DejaVuSans-Bold-62" d="M 2400 722 
Q 2759 722 2948 984 
Q 3138 1247 3138 1747 
Q 3138 2247 2948 2509 
Q 2759 2772 2400 2772 
Q 2041 2772 1848 2508 
Q 1656 2244 1656 1747 
Q 1656 1250 1848 986 
Q 2041 722 2400 722 
z
M 1656 2988 
Q 1888 3294 2169 3439 
Q 2450 3584 2816 3584 
Q 3463 3584 3878 3070 
Q 4294 2556 4294 1747 
Q 4294 938 3878 423 
Q 3463 -91 2816 -91 
Q 2450 -91 2169 54 
Q 1888 200 1656 506 
L 1656 0 
L 538 0 
L 538 4863 
L 1656 4863 
L 1656 2988 
z
" transform="scale(0.015625)"/>
      <path id="DejaVuSans-Bold-79" d="M 78 3500 
L 1197 3500 
L 2138 1125 
L 2938 3500 
L 4056 3500 
L 2584 -331 
Q 2363 -916 2067 -1148 
Q 1772 -1381 1288 -1381 
L 641 -1381 
L 641 -647 
L 991 -647 
Q 1275 -647 1404 -556 
Q 1534 -466 1606 -231 
L 1638 -134 
L 78 3500 
z
" transform="scale(0.015625)"/>
      <path id="DejaVuSans-Bold-54" d="M 31 4666 
L 4331 4666 
L 4331 3756 
L 2784 3756 
L 2784 0 
L 1581 0 
L 1581 3756 
L 31 3756 
L 31 4666 
z
" transform="scale(0.015625)"/>
      <path id="DejaVuSans-Bold-76" d="M 97 3500 
L 1216 3500 
L 2088 1081 
L 2956 3500 
L 4078 3500 
L 2700 0 
L 1472 0 
L 97 3500 
z
" transform="scale(0.015625)"/>
     </defs>
     <use xlink:href="#DejaVuSans-Bold-50"/>
     <use xlink:href="#DejaVuSans-Bold-61" transform="translate(70.666016 0)"/>
     <use xlink:href="#DejaVuSans-Bold-72" transform="translate(138.146484 0)"/>
     <use xlink:href="#DejaVuSans-Bold-61" transform="translate(187.462891 0)"/>
     <use xlink:href="#DejaVuSans-Bold-6c" transform="translate(254.943359 0)"/>
     <use xlink:href="#DejaVuSans-Bold-6c" transform="translate(289.220703 0)"/>
     <use xlink:href="#DejaVuSans-Bold-65" transform="translate(323.498047 0)"/>
     <use xlink:href="#DejaVuSans-Bold-6c" transform="translate(391.320312 0)"/>
     <use xlink:href="#DejaVuSans-Bold-20" transform="translate(425.597656 0)"/>
     <use xlink:href="#DejaVuSans-Bold-4c" transform="translate(460.412109 0)"/>
     <use xlink:href="#DejaVuSans-Bold-69" transform="translate(524.132812 0)"/>
     <use xlink:href="#DejaVuSans-Bold-6e" transform="translate(558.410156 0)"/>
     <use xlink:href="#DejaVuSans-Bold-65" transform="translate(629.601562 0)"/>
     <use xlink:href="#DejaVuSans-Bold-73" transform="translate(697.423828 0)"/>
     <use xlink:href="#DejaVuSans-Bold-20" transform="translate(756.945312 0)"/>
     <use xlink:href="#DejaVuSans-Bold-43" transform="translate(791.759766 0)"/>
     <use xlink:href="#DejaVuSans-Bold-75" transform="translate(865.148438 0)"/>
     <use xlink:href="#DejaVuSans-Bold-74" transform="translate(936.339844 0)"/>
     <use xlink:href="#DejaVuSans-Bold-20" transform="translate(984.142578 0)"/>
     <use xlink:href="#DejaVuSans-Bold-62" transform="translate(1018.957031 0)"/>
     <use xlink:href="#DejaVuSans-Bold-79" transform="translate(1090.539062 0)"/>
     <use xlink:href="#DejaVuSans-Bold-20" transform="translate(1155.724609 0)"/>
     <use xlink:href="#DejaVuSans-Bold-54" transform="translate(1190.539062 0)"/>
     <use xlink:href="#DejaVuSans-Bold-72" transform="translate(1247.751953 0)"/>
     <use xlink:href="#DejaVuSans-Bold-61" transform="translate(1297.068359 0)"/>
     <use xlink:href="#DejaVuSans-Bold-6e" transform="translate(1364.548828 0)"/>
     <use xlink:href="#DejaVuSans-Bold-73" transform="translate(1435.740234 0)"/>
     <use xlink:href="#DejaVuSans-Bold-76" transform="translate(1495.261719 0)"/>
     <use xlink:href="#DejaVuSans-Bold-65" transform="translate(1560.447266 0)"/>
     <use xlink:href="#DejaVuSans-Bold-72" transform="translate(1628.269531 0)"/>
     <use xlink:href="#DejaVuSans-Bold-73" transform="translate(1677.585938 0)"/>
     <use xlink:href="#DejaVuSans-Bold-61" transform="translate(1737.107422 0)"/>
     <use xlink:href="#DejaVuSans-Bold-6c" transform="translate(1804.587891 0)"/>
    </g>
   </g>
   <g id="text_12">
    <!-- Corresponding: ∠1=∠5, ∠2=∠6  |  Alternate Interior: ∠3=∠6, ∠4=∠5 -->
    <g style="fill: #6b7280" transform="translate(106.107813 501.54) scale(0.1 -0.1)">
     <defs>
      <path id="DejaVuSans-43" d="M 4122 4306 
L 4122 3641 
Q 3803 3938 3442 4084 
Q 3081 4231 2675 4231 
Q 1875 4231 1450 3742 
Q 1025 3253 1025 2328 
Q 1025 1406 1450 917 
Q 1875 428 2675 428 
Q 3081 428 3442 575 
Q 3803 722 4122 1019 
L 4122 359 
Q 3791 134 3420 21 
Q 3050 -91 2638 -91 
Q 1578 -91 968 557 
Q 359 1206 359 2328 
Q 359 3453 968 4101 
Q 1578 4750 2638 4750 
Q 3056 4750 3426 4639 
Q 3797 4528 4122 4306 
z
" transform="scale(0.015625)"/>
      <path id="DejaVuSans-6f" d="M 1959 3097 
Q 1497 3097 1228 2736 
Q 959 2375 959 1747 
Q 959 1119 1226 758 
Q 1494 397 1959 397 
Q 2419 397 2687 759 
Q 2956 1122 2956 1747 
Q 2956 2369 2687 2733 
Q 2419 3097 1959 3097 
z
M 1959 3584 
Q 2709 3584 3137 3096 
Q 3566 2609 3566 1747 
Q 3566 888 3137 398 
Q 2709 -91 1959 -91 
Q 1206 -91 779 398 
Q 353 888 353 1747 
Q 353 2609 779 3096 
Q 1206 3584 1959 3584 
z
" transform="scale(0.015625)"/>
      <path id="DejaVuSans-72" d="M 2631 2963 
Q 2534 3019 2420 3045 
Q 2306 3072 2169 3072 
Q 1681 3072 1420 2755 
Q 1159 2438 1159 1844 
L 1159 0 
L 581 0 
L 581 3500 
L 1159 3500 
L 1159 2956 
Q 1341 3275 1631 3429 
Q 1922 3584 2338 3584 
Q 2397 3584 2469 3576 
Q 2541 3569 2628 3553 
L 2631 2963 
z
" transform="scale(0.015625)"/>
      <path id="DejaVuSans-65" d="M 3597 1894 
L 3597 1613 
L 953 1613 
Q 991 1019 1311 708 
Q 1631 397 2203 397 
Q 2534 397 2845 478 
Q 3156 559 3463 722 
L 3463 178 
Q 3153 47 2828 -22 
Q 2503 -91 2169 -91 
Q 1331 -91 842 396 
Q 353 884 353 1716 
Q 353 2575 817 3079 
Q 1281 3584 2069 3584 
Q 2775 3584 3186 3129 
Q 3597 2675 3597 1894 
z
M 3022 2063 
Q 3016 2534 2758 2815 
Q 2500 3097 2075 3097 
Q 1594 3097 1305 2825 
Q 1016 2553 972 2059 
L 3022 2063 
z
" transform="scale(0.015625)"/>
      <path id="DejaVuSans-73" d="M 2834 3397 
L 2834 2853 
Q 2591 2978 2328 3040 
Q 2066 3103 1784 3103 
Q 1356 3103 1142 2972 
Q 928 2841 928 2578 
Q 928 2378 1081 2264 
Q 1234 2150 1697 2047 
L 1894 2003 
Q 2506 1872 2764 1633 
Q 3022 1394 3022 966 
Q 3022 478 2636 193 
Q 2250 -91 1575 -91 
Q 1294 -91 989 -36 
Q 684 19 347 128 
L 347 722 
Q 666 556 975 473 
Q 1284 391 1588 391 
Q 1994 391 2212 530 
Q 2431 669 2431 922 
Q 2431 1156 2273 1281 
Q 2116 1406 1581 1522 
L 1381 1569 
Q 847 1681 609 1914 
Q 372 2147 372 2553 
Q 372 3047 722 3315 
Q 1072 3584 1716 3584 
Q 2034 3584 2315 3537 
Q 2597 3491 2834 3397 
z
" transform="scale(0.015625)"/>
      <path id="DejaVuSans-70" d="M 1159 525 
L 1159 -1331 
L 581 -1331 
L 581 3500 
L 1159 3500 
L 1159 2969 
Q 1341 3281 1617 3432 
Q 1894 3584 2278 3584 
Q 2916 3584 3314 3078 
Q 3713 2572 3713 1747 
Q 3713 922 3314 415 
Q 2916 -91 2278 -91 
Q 1894 -91 1617 61 
Q 1341 213 1159 525 
z
M 3116 1747 
Q 3116 2381 2855 2742 
Q 2594 3103 2138 3103 
Q 1681 3103 1420 2742 
Q 1159 2381 1159 1747 
Q 1159 1113 1420 752 
Q 1681 391 2138 391 
Q 2594 391 2855 752 
Q 3116 1113 3116 1747 
z
" transform="scale(0.015625)"/>
      <path id="DejaVuSans-6e" d="M 3513 2113 
L 3513 0 
L 2938 0 
L 2938 2094 
Q 2938 2591 2744 2837 
Q 2550 3084 2163 3084 
Q 1697 3084 1428 2787 
Q 1159 2491 1159 1978 
L 1159 0 
L 581 0 
L 581 3500 
L 1159 3500 
L 1159 2956 
Q 1366 3272 1645 3428 
Q 1925 3584 2291 3584 
Q 2894 3584 3203 3211 
Q 3513 2838 3513 2113 
z
" transform="scale(0.015625)"/>
      <path id="DejaVuSans-64" d="M 2906 2969 
L 2906 4863 
L 3481 4863 
L 3481 0 
L 2906 0 
L 2906 525 
Q 2725 213 2448 61 
Q 2172 -91 1784 -91 
Q 1150 -91 751 415 
Q 353 922 353 1747 
Q 353 2572 751 3078 
Q 1150 3584 1784 3584 
Q 2172 3584 2448 3432 
Q 2725 3281 2906 2969 
z
M 947 1747 
Q 947 1113 1208 752 
Q 1469 391 1925 391 
Q 2381 391 2643 752 
Q 2906 1113 2906 1747 
Q 2906 2381 2643 2742 
Q 2381 3103 1925 3103 
Q 1469 3103 1208 2742 
Q 947 2381 947 1747 
z
" transform="scale(0.015625)"/>
      <path id="DejaVuSans-69" d="M 603 3500 
L 1178 3500 
L 1178 0 
L 603 0 
L 603 3500 
z
M 603 4863 
L 1178 4863 
L 1178 4134 
L 603 4134 
L 603 4863 
z
" transform="scale(0.015625)"/>
      <path id="DejaVuSans-67" d="M 2906 1791 
Q 2906 2416 2648 2759 
Q 2391 3103 1925 3103 
Q 1463 3103 1205 2759 
Q 947 2416 947 1791 
Q 947 1169 1205 825 
Q 1463 481 1925 481 
Q 2391 481 2648 825 
Q 2906 1169 2906 1791 
z
M 3481 434 
Q 3481 -459 3084 -895 
Q 2688 -1331 1869 -1331 
Q 1566 -1331 1297 -1286 
Q 1028 -1241 775 -1147 
L 775 -588 
Q 1028 -725 1275 -790 
Q 1522 -856 1778 -856 
Q 2344 -856 2625 -561 
Q 2906 -266 2906 331 
L 2906 616 
Q 2728 306 2450 153 
Q 2172 0 1784 0 
Q 1141 0 747 490 
Q 353 981 353 1791 
Q 353 2603 747 3093 
Q 1141 3584 1784 3584 
Q 2172 3584 2450 3431 
Q 2728 3278 2906 2969 
L 2906 3500 
L 3481 3500 
L 3481 434 
z
" transform="scale(0.015625)"/>
      <path id="DejaVuSans-3a" d="M 750 794 
L 1409 794 
L 1409 0 
L 750 0 
L 750 794 
z
M 750 3309 
L 1409 3309 
L 1409 2516 
L 750 2516 
L 750 3309 
z
" transform="scale(0.015625)"/>
      <path id="DejaVuSans-20" transform="scale(0.015625)"/>
      <path id="DejaVuSans-2220" d="M 5028 631 
L 5028 0 
L 547 0 
L 3525 4666 
L 4281 4666 
L 1716 631 
L 5028 631 
z
" transform="scale(0.015625)"/>
      <path id="DejaVuSans-31" d="M 794 531 
L 1825 531 
L 1825 4091 
L 703 3866 
L 703 4441 
L 1819 4666 
L 2450 4666 
L 2450 531 
L 3481 531 
L 3481 0 
L 794 0 
L 794 531 
z
" transform="scale(0.015625)"/>
      <path id="DejaVuSans-3d" d="M 678 2906 
L 4684 2906 
L 4684 2381 
L 678 2381 
L 678 2906 
z
M 678 1631 
L 4684 1631 
L 4684 1100 
L 678 1100 
L 678 1631 
z
" transform="scale(0.015625)"/>
      <path id="DejaVuSans-35" d="M 691 4666 
L 3169 4666 
L 3169 4134 
L 1269 4134 
L 1269 2991 
Q 1406 3038 1543 3061 
Q 1681 3084 1819 3084 
Q 2600 3084 3056 2656 
Q 3513 2228 3513 1497 
Q 3513 744 3044 326 
Q 2575 -91 1722 -91 
Q 1428 -91 1123 -41 
Q 819 9 494 109 
L 494 744 
Q 775 591 1075 516 
Q 1375 441 1709 441 
Q 2250 441 2565 725 
Q 2881 1009 2881 1497 
Q 2881 1984 2565 2268 
Q 2250 2553 1709 2553 
Q 1456 2553 1204 2497 
Q 953 2441 691 2322 
L 691 4666 
z
" transform="scale(0.015625)"/>
      <path id="DejaVuSans-2c" d="M 750 794 
L 1409 794 
L 1409 256 
L 897 -744 
L 494 -744 
L 750 256 
L 750 794 
z
" transform="scale(0.015625)"/>
      <path id="DejaVuSans-32" d="M 1228 531 
L 3431 531 
L 3431 0 
L 469 0 
L 469 531 
Q 828 903 1448 1529 
Q 2069 2156 2228 2338 
Q 2531 2678 2651 2914 
Q 2772 3150 2772 3378 
Q 2772 3750 2511 3984 
Q 2250 4219 1831 4219 
Q 1534 4219 1204 4116 
Q 875 4013 500 3803 
L 500 4441 
Q 881 4594 1212 4672 
Q 1544 4750 1819 4750 
Q 2544 4750 2975 4387 
Q 3406 4025 3406 3419 
Q 3406 3131 3298 2873 
Q 3191 2616 2906 2266 
Q 2828 2175 2409 1742 
Q 1991 1309 1228 531 
z
" transform="scale(0.015625)"/>
      <path id="DejaVuSans-36" d="M 2113 2584 
Q 1688 2584 1439 2293 
Q 1191 2003 1191 1497 
Q 1191 994 1439 701 
Q 1688 409 2113 409 
Q 2538 409 2786 701 
Q 3034 994 3034 1497 
Q 3034 2003 2786 2293 
Q 2538 2584 2113 2584 
z
M 3366 4563 
L 3366 3988 
Q 3128 4100 2886 4159 
Q 2644 4219 2406 4219 
Q 1781 4219 1451 3797 
Q 1122 3375 1075 2522 
Q 1259 2794 1537 2939 
Q 1816 3084 2150 3084 
Q 2853 3084 3261 2657 
Q 3669 2231 3669 1497 
Q 3669 778 3244 343 
Q 2819 -91 2113 -91 
Q 1303 -91 875 529 
Q 447 1150 447 2328 
Q 447 3434 972 4092 
Q 1497 4750 2381 4750 
Q 2619 4750 2861 4703 
Q 3103 4656 3366 4563 
z
" transform="scale(0.015625)"/>
      <path id="DejaVuSans-7c" d="M 1344 4891 
L 1344 -1509 
L 813 -1509 
L 813 4891 
L 1344 4891 
z
" transform="scale(0.015625)"/>
      <path id="DejaVuSans-41" d="M 2188 4044 
L 1331 1722 
L 3047 1722 
L 2188 4044 
z
M 1831 4666 
L 2547 4666 
L 4325 0 
L 3669 0 
L 3244 1197 
L 1141 1197 
L 716 0 
L 50 0 
L 1831 4666 
z
" transform="scale(0.015625)"/>
      <path id="DejaVuSans-6c" d="M 603 4863 
L 1178 4863 
L 1178 0 
L 603 0 
L 603 4863 
z
" transform="scale(0.015625)"/>
      <path id="DejaVuSans-74" d="M 1172 4494 
L 1172 3500 
L 2356 3500 
L 2356 3053 
L 1172 3053 
L 1172 1153 
Q 1172 725 1289 603 
Q 1406 481 1766 481 
L 2356 481 
L 2356 0 
L 1766 0 
Q 1100 0 847 248 
Q 594 497 594 1153 
L 594 3053 
L 172 3053 
L 172 3500 
L 594 3500 
L 594 4494 
L 1172 4494 
z
" transform="scale(0.015625)"/>
      <path id="DejaVuSans-61" d="M 2194 1759 
Q 1497 1759 1228 1600 
Q 959 1441 959 1056 
Q 959 750 1161 570 
Q 1363 391 1709 391 
Q 2188 391 2477 730 
Q 2766 1069 2766 1631 
L 2766 1759 
L 2194 1759 
z
M 3341 1997 
L 3341 0 
L 2766 0 
L 2766 531 
Q 2569 213 2275 61 
Q 1981 -91 1556 -91 
Q 1019 -91 701 211 
Q 384 513 384 1019 
Q 384 1609 779 1909 
Q 1175 2209 1959 2209 
L 2766 2209 
L 2766 2266 
Q 2766 2663 2505 2880 
Q 2244 3097 1772 3097 
Q 1472 3097 1187 3025 
Q 903 2953 641 2809 
L 641 3341 
Q 956 3463 1253 3523 
Q 1550 3584 1831 3584 
Q 2591 3584 2966 3190 
Q 3341 2797 3341 1997 
z
" transform="scale(0.015625)"/>
      <path id="DejaVuSans-49" d="M 628 4666 
L 1259 4666 
L 1259 0 
L 628 0 
L 628 4666 
z
" transform="scale(0.015625)"/>
      <path id="DejaVuSans-33" d="M 2597 2516 
Q 3050 2419 3304 2112 
Q 3559 1806 3559 1356 
Q 3559 666 3084 287 
Q 2609 -91 1734 -91 
Q 1441 -91 1130 -33 
Q 819 25 488 141 
L 488 750 
Q 750 597 1062 519 
Q 1375 441 1716 441 
Q 2309 441 2620 675 
Q 2931 909 2931 1356 
Q 2931 1769 2642 2001 
Q 2353 2234 1838 2234 
L 1294 2234 
L 1294 2753 
L 1863 2753 
Q 2328 2753 2575 2939 
Q 2822 3125 2822 3475 
Q 2822 3834 2567 4026 
Q 2313 4219 1838 4219 
Q 1578 4219 1281 4162 
Q 984 4106 628 3988 
L 628 4550 
Q 988 4650 1302 4700 
Q 1616 4750 1894 4750 
Q 2613 4750 3031 4423 
Q 3450 4097 3450 3541 
Q 3450 3153 3228 2886 
Q 3006 2619 2597 2516 
z
" transform="scale(0.015625)"/>
      <path id="DejaVuSans-34" d="M 2419 4116 
L 825 1625 
L 2419 1625 
L 2419 4116 
z
M 2253 4666 
L 3047 4666 
L 3047 1625 
L 3713 1625 
L 3713 1100 
L 3047 1100 
L 3047 0 
L 2419 0 
L 2419 1100 
L 313 1100 
L 313 1709 
L 2253 4666 
z
" transform="scale(0.015625)"/>
     </defs>
     <use xlink:href="#DejaVuSans-43"/>
     <use xlink:href="#DejaVuSans-6f" transform="translate(69.824219 0)"/>
     <use xlink:href="#DejaVuSans-72" transform="translate(131.005859 0)"/>
     <use xlink:href="#DejaVuSans-72" transform="translate(170.369141 0)"/>
     <use xlink:href="#DejaVuSans-65" transform="translate(209.232422 0)"/>
     <use xlink:href="#DejaVuSans-73" transform="translate(270.755859 0)"/>
     <use xlink:href="#DejaVuSans-70" transform="translate(322.855469 0)"/>
     <use xlink:href="#DejaVuSans-6f" transform="translate(386.332031 0)"/>
     <use xlink:href="#DejaVuSans-6e" transform="translate(447.513672 0)"/>
     <use xlink:href="#DejaVuSans-64" transform="translate(510.892578 0)"/>
     <use xlink:href="#DejaVuSans-69" transform="translate(574.369141 0)"/>
     <use xlink:href="#DejaVuSans-6e" transform="translate(602.152344 0)"/>
     <use xlink:href="#DejaVuSans-67" transform="translate(665.53125 0)"/>
     <use xlink:href="#DejaVuSans-3a" transform="translate(729.007812 0)"/>
     <use xlink:href="#DejaVuSans-20" transform="translate(762.699219 0)"/>
     <use xlink:href="#DejaVuSans-2220" transform="translate(794.486328 0)"/>
     <use xlink:href="#DejaVuSans-31" transform="translate(884.134766 0)"/>
     <use xlink:href="#DejaVuSans-3d" transform="translate(947.757812 0)"/>
     <use xlink:href="#DejaVuSans-2220" transform="translate(1031.546875 0)"/>
     <use xlink:href="#DejaVuSans-35" transform="translate(1121.195312 0)"/>
     <use xlink:href="#DejaVuSans-2c" transform="translate(1184.818359 0)"/>
     <use xlink:href="#DejaVuSans-20" transform="translate(1216.605469 0)"/>
     <use xlink:href="#DejaVuSans-2220" transform="translate(1248.392578 0)"/>
     <use xlink:href="#DejaVuSans-32" transform="translate(1338.041016 0)"/>
     <use xlink:href="#DejaVuSans-3d" transform="translate(1401.664062 0)"/>
     <use xlink:href="#DejaVuSans-2220" transform="translate(1485.453125 0)"/>
     <use xlink:href="#DejaVuSans-36" transform="translate(1575.101562 0)"/>
     <use xlink:href="#DejaVuSans-20" transform="translate(1638.724609 0)"/>
     <use xlink:href="#DejaVuSans-20" transform="translate(1670.511719 0)"/>
     <use xlink:href="#DejaVuSans-7c" transform="translate(1702.298828 0)"/>
     <use xlink:href="#DejaVuSans-20" transform="translate(1735.990234 0)"/>
     <use xlink:href="#DejaVuSans-20" transform="translate(1767.777344 0)"/>
     <use xlink:href="#DejaVuSans-41" transform="translate(1799.564453 0)"/>
     <use xlink:href="#DejaVuSans-6c" transform="translate(1867.972656 0)"/>
     <use xlink:href="#DejaVuSans-74" transform="translate(1895.755859 0)"/>
     <use xlink:href="#DejaVuSans-65" transform="translate(1934.964844 0)"/>
     <use xlink:href="#DejaVuSans-72" transform="translate(1996.488281 0)"/>
     <use xlink:href="#DejaVuSans-6e" transform="translate(2035.851562 0)"/>
     <use xlink:href="#DejaVuSans-61" transform="translate(2099.230469 0)"/>
     <use xlink:href="#DejaVuSans-74" transform="translate(2160.509766 0)"/>
     <use xlink:href="#DejaVuSans-65" transform="translate(2199.71875 0)"/>
     <use xlink:href="#DejaVuSans-20" transform="translate(2261.242188 0)"/>
     <use xlink:href="#DejaVuSans-49" transform="translate(2293.029297 0)"/>
     <use xlink:href="#DejaVuSans-6e" transform="translate(2322.521484 0)"/>
     <use xlink:href="#DejaVuSans-74" transform="translate(2385.900391 0)"/>
     <use xlink:href="#DejaVuSans-65" transform="translate(2425.109375 0)"/>
     <use xlink:href="#DejaVuSans-72" transform="translate(2486.632812 0)"/>
     <use xlink:href="#DejaVuSans-69" transform="translate(2527.746094 0)"/>
     <use xlink:href="#DejaVuSans-6f" transform="translate(2555.529297 0)"/>
     <use xlink:href="#DejaVuSans-72" transform="translate(2616.710938 0)"/>
     <use xlink:href="#DejaVuSans-3a" transform="translate(2656.074219 0)"/>
     <use xlink:href="#DejaVuSans-20" transform="translate(2689.765625 0)"/>
     <use xlink:href="#DejaVuSans-2220" transform="translate(2721.552734 0)"/>
     <use xlink:href="#DejaVuSans-33" transform="translate(2811.201172 0)"/>
     <use xlink:href="#DejaVuSans-3d" transform="translate(2874.824219 0)"/>
     <use xlink:href="#DejaVuSans-2220" transform="translate(2958.613281 0)"/>
     <use xlink:href="#DejaVuSans-36" transform="translate(3048.261719 0)"/>
     <use xlink:href="#DejaVuSans-2c" transform="translate(3111.884766 0)"/>
     <use xlink:href="#DejaVuSans-20" transform="translate(3143.671875 0)"/>
     <use xlink:href="#DejaVuSans-2220" transform="translate(3175.458984 0)"/>
     <use xlink:href="#DejaVuSans-34" transform="translate(3265.107422 0)"/>
     <use xlink:href="#DejaVuSans-3d" transform="translate(3328.730469 0)"/>
     <use xlink:href="#DejaVuSans-2220" transform="translate(3412.519531 0)"/>
     <use xlink:href="#DejaVuSans-35" transform="translate(3502.167969 0)"/>
    </g>
   </g>
  </g>
 </g>
 <defs>
  <clipPath id="pf27f59c608">
   <rect x="7.2" y="7.2" width="554.4" height="554.4"/>
  </clipPath>
 </defs>
</svg>
