<?xml version="1.0" encoding="utf-8" standalone="no"?>
<!DOCTYPE svg PUBLIC "-//W3C//DTD SVG 1.1//EN"
  "http://www.w3.org/Graphics/SVG/1.1/DTD/svg11.dtd">
<svg xmlns:xlink="http://www.w3.org/1999/xlink" width="424.8pt" height="424.8pt" viewBox="0 0 424.8 424.8" xmlns="http://www.w3.org/2000/svg" version="1.1">
 <metadata>
  <rdf:RDF xmlns:dc="http://purl.org/dc/elements/1.1/" xmlns:cc="http://creativecommons.org/ns#" xmlns:rdf="http://www.w3.org/1999/02/22-rdf-syntax-ns#">
   <cc:Work>
    <dc:type rdf:resource="http://purl.org/dc/dcmitype/StillImage"/>
    <dc:date>2025-12-12T10:04:43.145506</dc:date>
    <dc:format>image/svg+xml</dc:format>
    <dc:creator>
     <cc:Agent>
      <dc:title>Matplotlib v3.10.8, https://matplotlib.org/</dc:title>
     </cc:Agent>
    </dc:creator>
   </cc:Work>
  </rdf:RDF>
 </metadata>
 <defs>
  <style type="text/css">*{stroke-linejoin: round; stroke-linecap: butt}</style>
 </defs>
 <g id="figure_1">
  <g id="patch_1">
   <path d="M 0 424.8 
L 424.8 424.8 
L 424.8 0 
L 0 0 
z
" style="fill: #ffffff"/>
  </g>
  <g id="axes_1">
   <g id="patch_2">
    <path d="M 109.8 315 
L 280.8 315 
L 109.8 18.819312 
z
" clip-path="url(#p5d8db2bede)" style="fill: #f0fdf4; opacity: 0.3; stroke: #08245b; stroke-width: 2.5; stroke-linejoin: miter"/>
   </g>
   <g id="patch_3">
    <path d="M 109.8 315 
L 280.8 315 
L 109.8 18.819312 
L 109.8 315 
z
" clip-path="url(#p5d8db2bede)" style="fill: none; stroke: #08245b; stroke-width: 2.5; stroke-linejoin: miter"/>
   </g>
   <g id="patch_4">
    <path d="M 109.8 315 
L 123.48 315 
L 123.48 301.32 
L 109.8 301.32 
L 109.8 315 
z
" clip-path="url(#p5d8db2bede)" style="fill: none; stroke: #3b82f6; stroke-width: 2; stroke-linejoin: miter"/>
   </g>
   <g id="patch_5">
    <path d="M 130.32 315 
C 130.32 309.559845 128.156602 304.336939 124.309831 300.490169 
C 120.463061 296.643398 115.240155 294.48 109.8 294.48 
" clip-path="url(#p5d8db2bede)" style="fill: none; stroke: #3b82f6; stroke-width: 2; stroke-linejoin: miter"/>
   </g>
   <g id="patch_6">
    <path d="M 267.12 291.305545 
C 262.961064 293.706708 259.506708 297.161064 257.105545 301.32 
C 254.704382 305.478936 253.44 310.197674 253.44 315 
" clip-path="url(#p5d8db2bede)" style="fill: none; stroke: #3b82f6; stroke-width: 2; stroke-linejoin: miter"/>
   </g>
   <g id="text_1">
    <!-- 30° -->
    <g style="fill: #08245b" transform="translate(120.215372 296.546503) scale(0.12 -0.12)">
     <defs>
      <path id="DejaVuSans-Bold-33" d="M 2981 2516 
Q 3453 2394 3698 2092 
Q 3944 1791 3944 1325 
Q 3944 631 3412 270 
Q 2881 -91 1863 -91 
Q 1503 -91 1142 -33 
Q 781 25 428 141 
L 428 1069 
Q 766 900 1098 814 
Q 1431 728 1753 728 
Q 2231 728 2486 893 
Q 2741 1059 2741 1369 
Q 2741 1688 2480 1852 
Q 2219 2016 1709 2016 
L 1228 2016 
L 1228 2791 
L 1734 2791 
Q 2188 2791 2409 2933 
Q 2631 3075 2631 3366 
Q 2631 3634 2415 3781 
Q 2200 3928 1806 3928 
Q 1516 3928 1219 3862 
Q 922 3797 628 3669 
L 628 4550 
Q 984 4650 1334 4700 
Q 1684 4750 2022 4750 
Q 2931 4750 3382 4451 
Q 3834 4153 3834 3553 
Q 3834 3144 3618 2883 
Q 3403 2622 2981 2516 
z
" transform="scale(0.015625)"/>
      <path id="DejaVuSans-Bold-30" d="M 2944 2338 
Q 2944 3213 2780 3570 
Q 2616 3928 2228 3928 
Q 1841 3928 1675 3570 
Q 1509 3213 1509 2338 
Q 1509 1453 1675 1090 
Q 1841 728 2228 728 
Q 2613 728 2778 1090 
Q 2944 1453 2944 2338 
z
M 4147 2328 
Q 4147 1169 3647 539 
Q 3147 -91 2228 -91 
Q 1306 -91 806 539 
Q 306 1169 306 2328 
Q 306 3491 806 4120 
Q 1306 4750 2228 4750 
Q 3147 4750 3647 4120 
Q 4147 3491 4147 2328 
z
" transform="scale(0.015625)"/>
      <path id="DejaVuSans-Bold-b0" d="M 1600 4288 
Q 1375 4288 1219 4131 
Q 1063 3975 1063 3750 
Q 1063 3525 1217 3372 
Q 1372 3219 1600 3219 
Q 1825 3219 1981 3373 
Q 2138 3528 2138 3750 
Q 2138 3975 1980 4131 
Q 1822 4288 1600 4288 
z
M 1600 4794 
Q 1806 4794 1997 4714 
Q 2188 4634 2338 4488 
Q 2484 4338 2561 4150 
Q 2638 3963 2638 3750 
Q 2638 3541 2561 3352 
Q 2484 3163 2344 3022 
Q 2194 2872 2000 2792 
Q 1806 2713 1594 2713 
Q 1153 2713 854 3011 
Q 556 3309 556 3750 
Q 556 4191 857 4492 
Q 1159 4794 1600 4794 
z
" transform="scale(0.015625)"/>
     </defs>
     <use xlink:href="#DejaVuSans-Bold-33"/>
     <use xlink:href="#DejaVuSans-Bold-30" transform="translate(69.580078 0)"/>
     <use xlink:href="#DejaVuSans-Bold-b0" transform="translate(139.160156 0)"/>
    </g>
   </g>
   <g id="text_2">
    <!-- 60° -->
    <g style="fill: #08245b" transform="translate(236.870749 299.50125) scale(0.12 -0.12)">
     <defs>
      <path id="DejaVuSans-Bold-36" d="M 2316 2303 
Q 2000 2303 1842 2098 
Q 1684 1894 1684 1484 
Q 1684 1075 1842 870 
Q 2000 666 2316 666 
Q 2634 666 2792 870 
Q 2950 1075 2950 1484 
Q 2950 1894 2792 2098 
Q 2634 2303 2316 2303 
z
M 3803 4544 
L 3803 3681 
Q 3506 3822 3243 3889 
Q 2981 3956 2731 3956 
Q 2194 3956 1894 3657 
Q 1594 3359 1544 2772 
Q 1750 2925 1990 3001 
Q 2231 3078 2516 3078 
Q 3231 3078 3670 2659 
Q 4109 2241 4109 1563 
Q 4109 813 3618 361 
Q 3128 -91 2303 -91 
Q 1394 -91 895 523 
Q 397 1138 397 2266 
Q 397 3422 980 4083 
Q 1563 4744 2578 4744 
Q 2900 4744 3203 4694 
Q 3506 4644 3803 4544 
z
" transform="scale(0.015625)"/>
     </defs>
     <use xlink:href="#DejaVuSans-Bold-36"/>
     <use xlink:href="#DejaVuSans-Bold-30" transform="translate(69.580078 0)"/>
     <use xlink:href="#DejaVuSans-Bold-b0" transform="translate(139.160156 0)"/>
    </g>
   </g>
   <g id="text_3">
    <g id="patch_7">
     <path d="M 187.925703 337.302969 
L 202.674297 337.302969 
Q 205.974297 337.302969 205.974297 334.002969 
L 205.974297 323.357031 
Q 205.974297 320.057031 202.674297 320.057031 
L 187.925703 320.057031 
Q 184.625703 320.057031 184.625703 323.357031 
L 184.625703 334.002969 
Q 184.625703 337.302969 187.925703 337.302969 
z
" style="fill: #ffffff; opacity: 0.8"/>
    </g>
    <!-- 2x -->
    <g style="fill: #08245b" transform="translate(187.925703 331.715312) scale(0.11 -0.11)">
     <defs>
      <path id="DejaVuSans-Bold-32" d="M 1844 884 
L 3897 884 
L 3897 0 
L 506 0 
L 506 884 
L 2209 2388 
Q 2438 2594 2547 2791 
Q 2656 2988 2656 3200 
Q 2656 3528 2436 3728 
Q 2216 3928 1850 3928 
Q 1569 3928 1234 3808 
Q 900 3688 519 3450 
L 519 4475 
Q 925 4609 1322 4679 
Q 1719 4750 2100 4750 
Q 2938 4750 3402 4381 
Q 3866 4013 3866 3353 
Q 3866 2972 3669 2642 
Q 3472 2313 2841 1759 
L 1844 884 
z
" transform="scale(0.015625)"/>
      <path id="DejaVuSans-Bold-78" d="M 1422 1791 
L 159 3500 
L 1344 3500 
L 2059 2463 
L 2784 3500 
L 3969 3500 
L 2706 1797 
L 4031 0 
L 2847 0 
L 2059 1106 
L 1281 0 
L 97 0 
L 1422 1791 
z
" transform="scale(0.015625)"/>
     </defs>
     <use xlink:href="#DejaVuSans-Bold-32"/>
     <use xlink:href="#DejaVuSans-Bold-78" transform="translate(69.580078 0)"/>
    </g>
   </g>
   <g id="text_4">
    <g id="patch_8">
     <path d="M 112.437031 175.532625 
L 134.522969 175.532625 
Q 137.822969 175.532625 137.822969 172.232625 
L 137.822969 161.586687 
Q 137.822969 158.286687 134.522969 158.286687 
L 112.437031 158.286687 
Q 109.137031 158.286687 109.137031 161.586687 
L 109.137031 172.232625 
Q 109.137031 175.532625 112.437031 175.532625 
z
" style="fill: #ffffff; opacity: 0.8"/>
    </g>
    <!-- x√3 -->
    <g style="fill: #08245b" transform="translate(112.437031 169.944968) scale(0.11 -0.11)">
     <defs>
      <path id="DejaVuSans-Bold-221a" d="M 3609 5356 
L 4281 5356 
L 4281 4891 
L 3981 4891 
L 2138 -128 
L 1766 -128 
L 806 2516 
L 353 2344 
L 238 2747 
L 1363 3144 
L 2059 1159 
L 3609 5356 
z
" transform="scale(0.015625)"/>
     </defs>
     <use xlink:href="#DejaVuSans-Bold-78"/>
     <use xlink:href="#DejaVuSans-Bold-221a" transform="translate(64.501953 0)"/>
     <use xlink:href="#DejaVuSans-Bold-33" transform="translate(131.201172 0)"/>
    </g>
   </g>
   <g id="text_5">
    <g id="patch_9">
     <path d="M 179.905272 182.372625 
L 187.000272 182.372625 
Q 190.300272 182.372625 190.300272 179.072625 
L 190.300272 168.426687 
Q 190.300272 165.126687 187.000272 165.126687 
L 179.905272 165.126687 
Q 176.605272 165.126687 176.605272 168.426687 
L 176.605272 179.072625 
Q 176.605272 182.372625 179.905272 182.372625 
z
" style="fill: #ffffff; opacity: 0.8"/>
    </g>
    <!-- x -->
    <g style="fill: #08245b" transform="translate(179.905272 176.784968) scale(0.11 -0.11)">
     <use xlink:href="#DejaVuSans-Bold-78"/>
    </g>
   </g>
   <g id="text_6">
    <!-- 30-60-90 Triangle -->
    <g style="fill: #08245b" transform="translate(143.208281 58.5) scale(0.14 -0.14)">
     <defs>
      <path id="DejaVuSans-Bold-2d" d="M 347 2297 
L 2309 2297 
L 2309 1388 
L 347 1388 
L 347 2297 
z
" transform="scale(0.015625)"/>
      <path id="DejaVuSans-Bold-39" d="M 641 103 
L 641 966 
Q 928 831 1190 764 
Q 1453 697 1709 697 
Q 2247 697 2547 995 
Q 2847 1294 2900 1881 
Q 2688 1725 2447 1647 
Q 2206 1569 1925 1569 
Q 1209 1569 770 1986 
Q 331 2403 331 3084 
Q 331 3838 820 4291 
Q 1309 4744 2131 4744 
Q 3044 4744 3544 4128 
Q 4044 3513 4044 2388 
Q 4044 1231 3459 570 
Q 2875 -91 1856 -91 
Q 1528 -91 1228 -42 
Q 928 6 641 103 
z
M 2125 2350 
Q 2441 2350 2600 2554 
Q 2759 2759 2759 3169 
Q 2759 3575 2600 3781 
Q 2441 3988 2125 3988 
Q 1809 3988 1650 3781 
Q 1491 3575 1491 3169 
Q 1491 2759 1650 2554 
Q 1809 2350 2125 2350 
z
" transform="scale(0.015625)"/>
      <path id="DejaVuSans-Bold-20" transform="scale(0.015625)"/>
      <path id="DejaVuSans-Bold-54" d="M 31 4666 
L 4331 4666 
L 4331 3756 
L 2784 3756 
L 2784 0 
L 1581 0 
L 1581 3756 
L 31 3756 
L 31 4666 
z
" transform="scale(0.015625)"/>
      <path id="DejaVuSans-Bold-72" d="M 3138 2547 
Q 2991 2616 2845 2648 
Q 2700 2681 2553 2681 
Q 2122 2681 1889 2404 
Q 1656 2128 1656 1613 
L 1656 0 
L 538 0 
L 538 3500 
L 1656 3500 
L 1656 2925 
Q 1872 3269 2151 3426 
Q 2431 3584 2822 3584 
Q 2878 3584 2943 3579 
Q 3009 3575 3134 3559 
L 3138 2547 
z
" transform="scale(0.015625)"/>
      <path id="DejaVuSans-Bold-69" d="M 538 3500 
L 1656 3500 
L 1656 0 
L 538 0 
L 538 3500 
z
M 538 4863 
L 1656 4863 
L 1656 3950 
L 538 3950 
L 538 4863 
z
" transform="scale(0.015625)"/>
      <path id="DejaVuSans-Bold-61" d="M 2106 1575 
Q 1756 1575 1579 1456 
Q 1403 1338 1403 1106 
Q 1403 894 1545 773 
Q 1688 653 1941 653 
Q 2256 653 2472 879 
Q 2688 1106 2688 1447 
L 2688 1575 
L 2106 1575 
z
M 3816 1997 
L 3816 0 
L 2688 0 
L 2688 519 
Q 2463 200 2181 54 
Q 1900 -91 1497 -91 
Q 953 -91 614 226 
Q 275 544 275 1050 
Q 275 1666 698 1953 
Q 1122 2241 2028 2241 
L 2688 2241 
L 2688 2328 
Q 2688 2594 2478 2717 
Q 2269 2841 1825 2841 
Q 1466 2841 1156 2769 
Q 847 2697 581 2553 
L 581 3406 
Q 941 3494 1303 3539 
Q 1666 3584 2028 3584 
Q 2975 3584 3395 3211 
Q 3816 2838 3816 1997 
z
" transform="scale(0.015625)"/>
      <path id="DejaVuSans-Bold-6e" d="M 4056 2131 
L 4056 0 
L 2931 0 
L 2931 347 
L 2931 1631 
Q 2931 2084 2911 2256 
Q 2891 2428 2841 2509 
Q 2775 2619 2662 2680 
Q 2550 2741 2406 2741 
Q 2056 2741 1856 2470 
Q 1656 2200 1656 1722 
L 1656 0 
L 538 0 
L 538 3500 
L 1656 3500 
L 1656 2988 
Q 1909 3294 2193 3439 
Q 2478 3584 2822 3584 
Q 3428 3584 3742 3212 
Q 4056 2841 4056 2131 
z
" transform="scale(0.015625)"/>
      <path id="DejaVuSans-Bold-67" d="M 2919 594 
Q 2688 288 2409 144 
Q 2131 0 1766 0 
Q 1125 0 706 504 
Q 288 1009 288 1791 
Q 288 2575 706 3076 
Q 1125 3578 1766 3578 
Q 2131 3578 2409 3434 
Q 2688 3291 2919 2981 
L 2919 3500 
L 4044 3500 
L 4044 353 
Q 4044 -491 3511 -936 
Q 2978 -1381 1966 -1381 
Q 1638 -1381 1331 -1331 
Q 1025 -1281 716 -1178 
L 716 -306 
Q 1009 -475 1290 -558 
Q 1572 -641 1856 -641 
Q 2406 -641 2662 -400 
Q 2919 -159 2919 353 
L 2919 594 
z
M 2181 2772 
Q 1834 2772 1640 2515 
Q 1447 2259 1447 1791 
Q 1447 1309 1634 1061 
Q 1822 813 2181 813 
Q 2531 813 2725 1069 
Q 2919 1325 2919 1791 
Q 2919 2259 2725 2515 
Q 2531 2772 2181 2772 
z
" transform="scale(0.015625)"/>
      <path id="DejaVuSans-Bold-6c" d="M 538 4863 
L 1656 4863 
L 1656 0 
L 538 0 
L 538 4863 
z
" transform="scale(0.015625)"/>
      <path id="DejaVuSans-Bold-65" d="M 4031 1759 
L 4031 1441 
L 1416 1441 
Q 1456 1047 1700 850 
Q 1944 653 2381 653 
Q 2734 653 3104 758 
Q 3475 863 3866 1075 
L 3866 213 
Q 3469 63 3072 -14 
Q 2675 -91 2278 -91 
Q 1328 -91 801 392 
Q 275 875 275 1747 
Q 275 2603 792 3093 
Q 1309 3584 2216 3584 
Q 3041 3584 3536 3087 
Q 4031 2591 4031 1759 
z
M 2881 2131 
Q 2881 2450 2695 2645 
Q 2509 2841 2209 2841 
Q 1884 2841 1681 2658 
Q 1478 2475 1428 2131 
L 2881 2131 
z
" transform="scale(0.015625)"/>
     </defs>
     <use xlink:href="#DejaVuSans-Bold-33"/>
     <use xlink:href="#DejaVuSans-Bold-30" transform="translate(69.580078 0)"/>
     <use xlink:href="#DejaVuSans-Bold-2d" transform="translate(139.160156 0)"/>
     <use xlink:href="#DejaVuSans-Bold-36" transform="translate(180.664062 0)"/>
     <use xlink:href="#DejaVuSans-Bold-30" transform="translate(250.244141 0)"/>
     <use xlink:href="#DejaVuSans-Bold-2d" transform="translate(319.824219 0)"/>
     <use xlink:href="#DejaVuSans-Bold-39" transform="translate(361.328125 0)"/>
     <use xlink:href="#DejaVuSans-Bold-30" transform="translate(430.908203 0)"/>
     <use xlink:href="#DejaVuSans-Bold-20" transform="translate(500.488281 0)"/>
     <use xlink:href="#DejaVuSans-Bold-54" transform="translate(535.302734 0)"/>
     <use xlink:href="#DejaVuSans-Bold-72" transform="translate(592.515625 0)"/>
     <use xlink:href="#DejaVuSans-Bold-69" transform="translate(641.832031 0)"/>
     <use xlink:href="#DejaVuSans-Bold-61" transform="translate(676.109375 0)"/>
     <use xlink:href="#DejaVuSans-Bold-6e" transform="translate(743.589844 0)"/>
     <use xlink:href="#DejaVuSans-Bold-67" transform="translate(814.78125 0)"/>
     <use xlink:href="#DejaVuSans-Bold-6c" transform="translate(886.363281 0)"/>
     <use xlink:href="#DejaVuSans-Bold-65" transform="translate(920.640625 0)"/>
    </g>
   </g>
   <g id="text_7">
    <g id="patch_10">
     <path d="M 153.081563 373.595625 
L 271.718438 373.595625 
Q 276.518438 373.595625 276.518438 368.795625 
L 276.518438 357.181875 
Q 276.518438 352.381875 271.718438 352.381875 
L 153.081563 352.381875 
Q 148.281563 352.381875 148.281563 357.181875 
L 148.281563 368.795625 
Q 148.281563 373.595625 153.081563 373.595625 
z
" style="fill: #fffbeb; stroke: #3b82f6; stroke-width: 1.5; stroke-linejoin: miter"/>
    </g>
    <!-- Ratio: x : x√3 : 2x -->
    <g style="fill: #3b82f6" transform="translate(153.081563 366.3) scale(0.12 -0.12)">
     <defs>
      <path id="DejaVuSans-Bold-52" d="M 2297 2597 
Q 2675 2597 2839 2737 
Q 3003 2878 3003 3200 
Q 3003 3519 2839 3656 
Q 2675 3794 2297 3794 
L 1791 3794 
L 1791 2597 
L 2297 2597 
z
M 1791 1766 
L 1791 0 
L 588 0 
L 588 4666 
L 2425 4666 
Q 3347 4666 3776 4356 
Q 4206 4047 4206 3378 
Q 4206 2916 3982 2619 
Q 3759 2322 3309 2181 
Q 3556 2125 3751 1926 
Q 3947 1728 4147 1325 
L 4800 0 
L 3519 0 
L 2950 1159 
Q 2778 1509 2601 1637 
Q 2425 1766 2131 1766 
L 1791 1766 
z
" transform="scale(0.015625)"/>
      <path id="DejaVuSans-Bold-74" d="M 1759 4494 
L 1759 3500 
L 2913 3500 
L 2913 2700 
L 1759 2700 
L 1759 1216 
Q 1759 972 1856 886 
Q 1953 800 2241 800 
L 2816 800 
L 2816 0 
L 1856 0 
Q 1194 0 917 276 
Q 641 553 641 1216 
L 641 2700 
L 84 2700 
L 84 3500 
L 641 3500 
L 641 4494 
L 1759 4494 
z
" transform="scale(0.015625)"/>
      <path id="DejaVuSans-Bold-6f" d="M 2203 2784 
Q 1831 2784 1636 2517 
Q 1441 2250 1441 1747 
Q 1441 1244 1636 976 
Q 1831 709 2203 709 
Q 2569 709 2762 976 
Q 2956 1244 2956 1747 
Q 2956 2250 2762 2517 
Q 2569 2784 2203 2784 
z
M 2203 3584 
Q 3106 3584 3614 3096 
Q 4122 2609 4122 1747 
Q 4122 884 3614 396 
Q 3106 -91 2203 -91 
Q 1297 -91 786 396 
Q 275 884 275 1747 
Q 275 2609 786 3096 
Q 1297 3584 2203 3584 
z
" transform="scale(0.015625)"/>
      <path id="DejaVuSans-Bold-3a" d="M 716 3500 
L 1844 3500 
L 1844 2291 
L 716 2291 
L 716 3500 
z
M 716 1209 
L 1844 1209 
L 1844 0 
L 716 0 
L 716 1209 
z
" transform="scale(0.015625)"/>
     </defs>
     <use xlink:href="#DejaVuSans-Bold-52"/>
     <use xlink:href="#DejaVuSans-Bold-61" transform="translate(77.001953 0)"/>
     <use xlink:href="#DejaVuSans-Bold-74" transform="translate(144.482422 0)"/>
     <use xlink:href="#DejaVuSans-Bold-69" transform="translate(192.285156 0)"/>
     <use xlink:href="#DejaVuSans-Bold-6f" transform="translate(226.5625 0)"/>
     <use xlink:href="#DejaVuSans-Bold-3a" transform="translate(295.263672 0)"/>
     <use xlink:href="#DejaVuSans-Bold-20" transform="translate(335.253906 0)"/>
     <use xlink:href="#DejaVuSans-Bold-78" transform="translate(370.068359 0)"/>
     <use xlink:href="#DejaVuSans-Bold-20" transform="translate(434.570312 0)"/>
     <use xlink:href="#DejaVuSans-Bold-3a" transform="translate(469.384766 0)"/>
     <use xlink:href="#DejaVuSans-Bold-20" transform="translate(509.375 0)"/>
     <use xlink:href="#DejaVuSans-Bold-78" transform="translate(544.189453 0)"/>
     <use xlink:href="#DejaVuSans-Bold-221a" transform="translate(608.691406 0)"/>
     <use xlink:href="#DejaVuSans-Bold-33" transform="translate(675.390625 0)"/>
     <use xlink:href="#DejaVuSans-Bold-20" transform="translate(744.970703 0)"/>
     <use xlink:href="#DejaVuSans-Bold-3a" transform="translate(779.785156 0)"/>
     <use xlink:href="#DejaVuSans-Bold-20" transform="translate(819.775391 0)"/>
     <use xlink:href="#DejaVuSans-Bold-32" transform="translate(854.589844 0)"/>
     <use xlink:href="#DejaVuSans-Bold-78" transform="translate(924.169922 0)"/>
    </g>
   </g>
  </g>
 </g>
 <defs>
  <clipPath id="p5d8db2bede">
   <rect x="7.2" y="7.2" width="410.4" height="410.4"/>
  </clipPath>
 </defs>
</svg>
